<svg xmlns="http://www.w3.org/2000/svg" width="596" height="596" fill="none" viewBox="0 0 596 596"><mask id="mask0_324_267" style="mask-type:alpha" width="596" height="596" x="0" y="0" maskUnits="userSpaceOnUse"><rect width="596" height="596" fill="#D9D9D9"/></mask><g mask="url(#mask0_324_267)"><path fill="#000" d="M343.628 5.51886C350.91 1.27984 359.908 1.27985 367.19 5.51887L554.076 114.31C569.59 123.341 569.59 145.754 554.076 154.785L367.19 263.576C359.908 267.815 350.91 267.815 343.628 263.576L156.742 154.785C141.227 145.754 141.227 123.341 156.742 114.31L343.628 5.51886Z"/><path fill="#000" d="M354.608 281.4C354.577 272.974 359.076 265.181 366.388 260.994L554.047 153.542C569.626 144.621 589.036 155.828 589.1 173.78L589.873 390.023C589.903 398.449 585.404 406.241 578.092 410.428L390.433 517.881C374.854 526.801 355.445 515.595 355.38 497.643L354.608 281.4Z"/><path fill="#AEAEAE" d="M15.5462 479.077C8.23409 474.89 3.73515 467.098 3.76526 458.672L4.53811 242.429C4.60227 224.477 24.012 213.27 39.591 222.191L227.25 329.643C234.562 333.83 239.061 341.623 239.031 350.048L238.258 566.292C238.194 584.244 218.784 595.45 203.205 586.53L15.5462 479.077Z"/></g></svg>