<svg xmlns="http://www.w3.org/2000/svg" width="500" height="500" fill="none" viewBox="0 0 500 500"><path stroke="#000" stroke-linejoin="round" stroke-width="56.283" d="M252.252 457.693L128.678 457.693L114.414 457.693L102.92 456.167L92.3833 454.251L82.2225 450.985L68.9159 444.672L57.3183 435.18L52.1534 428.389L47.265 420.338L45.4485 412.584L44.0117 404.921L42.9547 396.78L42.9547 387.771L48.7018 371.487L61.6328 348.02L78.9734 326.377L94.1999 306.832L108.089 286.238L121.02 266.123L132.035 246.487L159.813 194.763L172.744 158.843L183.28 122.924L197.169 71.1998L201.001 40.5482"/><path stroke="#AEAEAE" stroke-linejoin="round" stroke-width="56.283" d="M252.252 40.2852L128.678 40.2852L114.414 40.2852L102.92 41.8114L92.3833 43.7271L82.2225 46.9934L68.9159 53.3056L57.3183 62.798L52.1534 69.5892L47.265 77.6402L45.4485 85.3937L44.0117 93.0566L42.9547 101.198L42.9547 110.207L48.7018 126.491L61.6328 149.958L78.9734 171.601L94.1999 191.146L108.089 211.74L121.02 231.855L132.035 251.491L159.813 303.215L172.744 339.134L183.28 375.054L197.169 426.778L201.001 457.43"/><path stroke="#000" stroke-linejoin="round" stroke-width="56.283" d="M249.008 457.693L372.581 457.693L386.846 457.693L398.34 456.167L408.876 454.251L419.037 450.985L432.344 444.672L443.941 435.18L449.106 428.389L453.995 420.338L455.811 412.584L457.248 404.921L458.305 396.78L458.305 387.771L452.558 371.487L439.627 348.02L422.286 326.377L407.06 306.832L393.171 286.238L380.24 266.123L369.225 246.487L341.447 194.763L328.516 158.843L317.979 122.924L304.091 71.1998L300.259 40.5482"/><path stroke="#AEAEAE" stroke-linejoin="round" stroke-width="56.283" d="M249.008 40.2852L372.581 40.2852L386.846 40.2852L398.34 41.8114L408.876 43.7271L419.037 46.9934L432.344 53.3056L443.941 62.798L449.106 69.5892L453.995 77.6402L455.811 85.3937L457.248 93.0566L458.305 101.198L458.305 110.207L452.558 126.491L439.627 149.958L422.286 171.601L407.06 191.146L393.171 211.74L380.24 231.855L369.225 251.491L341.447 303.215L328.516 339.134L317.979 375.054L304.091 426.778L300.259 457.43"/><line x1="150.812" x2="347.173" y1="457.591" y2="457.591" stroke="#000" stroke-linejoin="round" stroke-width="56.283"/><line x1="236" x2="273.356" y1="40.291" y2="40.291" stroke="#AEAEAE" stroke-width="55.418"/></svg>