<svg width="229" height="179" viewBox="0 0 229 179" fill="none" xmlns="http://www.w3.org/2000/svg">
<mask id="mask0_383_131" style="mask-type:alpha" maskUnits="userSpaceOnUse" x="0" y="0" width="229" height="179">
<rect width="229" height="179" fill="#D9D9D9"/>
</mask>
<g mask="url(#mask0_383_131)">
<path d="M56.0756 8.92922C57.8326 3.60023 62.8106 0 68.4218 0H210.966C219.839 0 226.104 8.69168 223.3 17.1093L172.323 170.109C170.554 175.419 165.586 179 159.99 179H17.9748C9.11932 179 2.85559 170.339 5.62856 161.929L56.0756 8.92922Z" fill="url(#paint0_linear_383_131)"/>
<path d="M146.123 84.6947C157.953 88.8148 164.38 95.8587 165.404 105.826C166.321 114.747 163.576 122.504 157.17 129.095C148.644 137.882 136.325 143.104 120.212 144.759C108.242 145.989 96.9252 144.852 86.2623 141.348C75.8362 137.911 67.597 132.479 61.5444 125.052C57.1728 119.66 54.7976 115.12 54.4189 111.434C54.2739 110.023 55.9706 108.629 59.5089 107.254C63.7287 112.064 70.7388 115.828 80.5391 118.547C83.0137 114.429 86.3237 108.593 90.469 101.037C94.6143 93.4823 97.8513 87.6073 100.18 83.4125C102.504 79.1721 104.845 75.0911 107.201 71.1693C112.427 62.4912 117.058 55.8522 121.092 51.252C122.318 49.7463 124.384 49.488 127.291 50.4772C128.052 50.721 128.681 51.0243 129.178 51.3872C125.794 55.5986 121.477 63.7233 116.228 75.7613C120.518 76.3324 124.234 76.4567 127.374 76.134C130.515 75.8114 133.598 75.1497 136.622 74.149C139.643 73.1028 142.357 71.766 144.766 70.1387C150.324 66.486 152.874 62.4294 152.415 57.9689C151.522 49.2756 144.285 43.9708 130.703 42.0545C125.379 41.2676 120.123 41.1407 114.934 41.6738C109.791 42.2022 104.981 43.0643 100.504 44.2602C96.0228 45.4105 92.0842 46.9191 88.6883 48.7858C81.2011 52.9127 77.7709 58.0256 78.3975 64.1246C78.9259 69.2678 81.2817 73.3953 85.465 76.5071C81.7768 81.3476 78.7037 83.8941 76.2459 84.1466C73.424 84.4365 70.6275 83.183 67.8564 80.386C65.0304 77.5027 63.4257 74.1949 63.0423 70.4627C62.6588 66.7305 63.0959 63.3739 64.3535 60.393C65.6566 57.4074 67.5386 54.6843 69.9995 52.2237C72.4558 49.7176 75.352 47.4652 78.6883 45.4666C82.0701 43.4634 85.6848 41.7121 89.5324 40.2129C97.0046 37.2835 103.813 35.5031 109.958 34.8718C116.102 34.2405 121.251 33.9876 125.403 34.1129C129.596 34.188 133.615 34.5801 137.46 35.289C141.304 35.9979 144.903 37.0079 148.258 38.3191C151.612 39.6304 154.587 41.2795 157.183 43.2666C162.631 47.4904 165.693 52.9022 166.371 59.5018C166.914 64.7815 165.193 69.7419 161.208 74.3828C157.646 78.6584 152.617 82.0957 146.123 84.6947ZM96.78 121.501C102.213 122.001 106.568 122.082 109.845 121.746C113.122 121.409 115.891 121.055 118.153 120.685C120.41 120.269 122.821 119.561 125.386 118.562C127.997 117.558 130.19 116.298 131.966 114.781C135.863 111.529 137.56 107.445 137.055 102.53C136.564 97.7506 133.726 94.0865 128.543 91.5374C123.797 89.2192 117.883 88.286 110.8 88.7377C109.588 91.714 108.376 94.6902 107.164 97.6664C105.952 100.643 104.756 103.548 103.575 106.383C101.06 112.345 98.7948 117.384 96.78 121.501Z" fill="black"/>
</g>
<defs>
<linearGradient id="paint0_linear_383_131" x1="114.5" y1="0" x2="114.5" y2="179" gradientUnits="userSpaceOnUse">
<stop stop-color="#6EE7B7"/>
<stop offset="1" stop-color="#34D399"/>
</linearGradient>
</defs>
</svg>
